<?xml version="1.0" encoding="utf-8"?>
<!-- Generator: Adobe Illustrator 16.0.0, SVG Export Plug-In . SVG Version: 6.00 Build 0)  -->
<!DOCTYPE svg PUBLIC "-//W3C//DTD SVG 1.1//EN" "http://www.w3.org/Graphics/SVG/1.1/DTD/svg11.dtd">
<svg version="1.1" id="图层_2" xmlns="http://www.w3.org/2000/svg" xmlns:xlink="http://www.w3.org/1999/xlink" x="0px" y="0px"
	 width="167px" height="115.167px" viewBox="0 0 167 115.167" enable-background="new 0 0 167 115.167" xml:space="preserve">
<rect x="0.5" y="35.5" fill="none" stroke="#FFFFFF" stroke-miterlimit="10" width="166" height="43"/>
<path fill="none" stroke="#FFFFFF" stroke-miterlimit="10" d="M35,30.5C51.167,0.5,83.5,1.167,83.5,1.167
	C119.333,1.667,132,30.5,132,30.5"/>
<path fill="none" stroke="#FFFFFF" stroke-miterlimit="10" d="M35,85.166c16.167,30,48.5,29.333,48.5,29.333
	c35.833-0.5,48.5-29.333,48.5-29.333"/>
<g>
	<path fill="#FFFFFF" d="M34.355,49.961h2.902v4.252h20.18v-7.977H33.106v-2.297h27.165v14.464h-2.834V56.51h-20.18v9.032
		c0,1.903,0.979,2.855,2.936,2.855H56.83c1.935,0,3.104-0.642,3.51-1.925c0.404-1.262,0.708-2.948,0.911-5.059
		c0.877,0.352,1.844,0.662,2.901,0.931c-0.314,2.152-0.652,3.87-1.012,5.152c-0.675,2.338-2.565,3.508-5.67,3.508H39.519
		c-3.442,0-5.163-1.635-5.163-4.904V49.961z"/>
	<path fill="#FFFFFF" d="M65.334,67.808c4.162-0.745,8.223-1.562,12.182-2.452c-0.067,0.828-0.101,1.614-0.101,2.359
		c-3.645,0.703-7.424,1.531-11.339,2.482L65.334,67.808z M69.755,60.482c2.992-0.393,5.467-0.745,7.424-1.055
		c-0.135,0.807-0.236,1.593-0.304,2.358c-2.497,0.331-5.905,0.817-10.225,1.459l-0.54-2.297c1.439-1.376,3.155-3.559,5.146-6.549
		c-1.89,0.113-3.604,0.228-5.146,0.341l-0.642-2.11c2.069-2.545,4.219-6.218,6.445-11.019l2.564,0.931
		c-2.43,4.388-4.42,7.688-5.973,9.901c1.305-0.03,2.666-0.066,4.083-0.108c0.766-1.2,1.563-2.509,2.396-3.927l2.497,1.148
		C74.918,53.489,72.342,57.131,69.755,60.482z M78.427,53.871h8.234v-4.842h-9.348v-2.234h9.348v-4.967h2.699v4.967h9.449v2.234
		H89.36v4.842h8.269v2.235H78.427V53.871z M79.103,59.769H96.92V72.37h-2.632v-1.924H81.734v1.924h-2.632V59.769z M94.288,61.941
		H81.734v6.332h12.554V61.941z"/>
	<path fill="#FFFFFF" d="M133.533,68.832c-0.765,0.849-1.372,1.593-1.822,2.234c-5.467-2.297-10.011-5.38-13.633-9.249v10.615
		h-2.564V61.755c-3.634,3.663-8.234,6.86-13.803,9.591c-0.449-0.579-1.034-1.262-1.754-2.048c5.5-2.338,10.343-5.391,14.527-9.156
		h-8.184v1.086h-2.564V50.705h11.777V47.26h-15.152v-2.172h15.152v-3.353h2.564v3.353h14.982v2.172h-14.982v3.445h11.811v10.522
		h-2.564v-1.086h-8.284C123.011,64.011,127.842,66.907,133.533,68.832z M106.301,52.816v5.214h9.213v-5.214H106.301z
		 M127.324,52.816h-9.246v5.214h9.246V52.816z"/>
</g>
<g>
</g>
<g>
</g>
<g>
</g>
<g>
</g>
<g>
</g>
<g>
</g>
<g>
</g>
<g>
</g>
<g>
</g>
<g>
</g>
<g>
</g>
<g>
</g>
<g>
</g>
<g>
</g>
<g>
</g>
</svg>
